<?xml version="1.0" encoding="UTF-8" standalone="no"?>
<!DOCTYPE svg PUBLIC "-//W3C//DTD SVG 1.1//EN" "http://www.w3.org/Graphics/SVG/1.1/DTD/svg11.dtd">
<svg width="100%" height="100%" viewBox="0 0 563 526" version="1.1" xmlns="http://www.w3.org/2000/svg" xmlns:xlink="http://www.w3.org/1999/xlink" xml:space="preserve" style="fill-rule:evenodd;clip-rule:evenodd;">
    <g>
        <g opacity="0.2">
            <g transform="matrix(1,0,0,1,-265.362,-25.5596)">
                <path d="M540.3,26.2C552.1,24.5 564.5,27.7 574,34.9C584.5,42.6 591.3,55 592.2,68C593,78.5 590.1,89.3 583.9,97.9C577.2,107.5 566.6,114.3 555,116.3C543.7,118.7 531.7,116 522.1,109.9C511.5,103.1 503.8,91.8 501.7,79.4C499.3,66.2 503.2,52.1 511.9,41.9C519,33.4 529.4,27.8 540.3,26.2Z" style="fill:rgb(0,110,81);fill-rule:nonzero;stroke:rgb(0,110,81);stroke-width:0.09px;"/>
            </g>
            <g transform="matrix(1,0,0,1,-265.362,-25.5596)">
                <path d="M391.7,171.6C413.5,147.3 446.3,133.2 479,134.6C501.4,135.4 524.2,140.6 543.4,152.5C544.9,153.3 546.8,155.1 548.4,153.4C561.1,145.4 575.3,140.1 590.1,137.3C606.8,134.3 624.2,133.2 640.9,136.8C660.9,140.9 679.6,150.6 694.6,164.4C697.9,167.4 700.7,170.9 704,173.9C717.2,171 730.9,168.7 744.5,170.3C761.9,171.9 778.7,178.8 792.4,189.6C806.8,200.8 817.7,216.4 823.3,233.8C828.4,249.7 829.2,267 825.4,283.2C821.8,301.4 812.7,317.8 803.9,333.8C795.6,349.1 784.9,362.8 775,377C770.7,383.1 766.4,389.3 762,395.3C738.6,395.3 715.2,395.5 691.7,395.2C703.8,377.3 716.7,359.9 729.1,342.1C738.6,328.3 749,315 757.2,300.3C764.8,286.5 770.2,270.5 767.2,254.7C763.8,238.3 746.4,225.5 729.7,229C732.7,245.7 732.5,263.2 727.4,279.5C722.8,294.1 714.5,307.2 705.6,319.6C687.6,344.8 669.9,370.1 651.8,395.1C628.3,395.6 604.7,395.4 581.1,395.3C587.5,385.1 594.9,375.6 601.7,365.7C622.1,336.8 642.6,307.9 663,279C669.6,269.8 673,258.3 672.8,247C672.9,229.3 663.4,212.1 648.8,202.2C637.6,194.4 623.4,191.3 609.9,193.2C601.5,194.1 593.1,196.3 586,201.1C581.3,204.4 577.3,209 575.8,214.6C574.1,221.6 574.2,228.8 574,236C574,289.1 574.1,342.2 574,395.3C555.8,395.4 537.7,395.4 519.5,395.4C519.3,340.9 519.5,286.5 519.4,232C518.7,224.5 519.4,216.3 515.4,209.6C511,201.8 502.4,197.5 494,195.1C482.9,192.3 471.1,191.6 460.1,194.9C445.2,199.2 432.5,210 425.9,223.9C417.4,241.2 419,263.1 430.2,278.8C455.1,314 480,349.1 504.8,384.2C507.3,387.9 510.1,391.4 512.4,395.3C489.3,395.5 466.1,395.3 443,395.4C441.4,395.6 440.7,394 439.9,393C422.4,368.3 404.8,343.5 387.2,318.8C378.2,306.4 370.1,293 365.6,278.3C361.2,262.9 360.4,246.5 363.5,230.9C364.4,228.5 361.4,228.6 359.9,228.4C343,227.5 327.2,241.4 325.5,258.2C323.5,277.9 333,296.5 343.5,312.4C356.2,331 369.4,349.2 382.4,367.6C388.7,376.9 395.6,385.8 401.6,395.3C379.4,395.6 357.2,395.3 335,395.4C333.6,395.2 331.6,395.9 330.7,394.4C324.3,385.5 318,376.4 311.6,367.4C306.3,359.7 300.5,352.4 295.7,344.3C286.5,329.3 278.1,313.7 271.8,297.2C266.7,282.3 264.2,266.2 266.3,250.5C268.6,232.4 276.4,215.1 288.4,201.5C303.2,184.4 324.6,173.1 347.1,170.5C360.8,168.7 374.7,170.4 388,173.7C389.7,174.4 390.6,172.5 391.7,171.6Z" style="fill:rgb(0,110,81);fill-rule:nonzero;stroke:rgb(0,110,81);stroke-width:0.09px;"/>
            </g>
            <g transform="matrix(1,0,0,1,1.08244,0)">
                <g id="Layer1">
                    <path d="M88.918,498.907C279.904,364.343 420.107,463.446 469.918,498.907" style="fill:none;stroke:rgb(0,110,81);stroke-width:51.04px;stroke-linecap:round;stroke-linejoin:round;stroke-miterlimit:1.5;"/>
                </g>
            </g>
        </g>
    </g>
</svg>
