<?xml version="1.0" standalone="no"?>
<!DOCTYPE svg PUBLIC "-//W3C//DTD SVG 20010904//EN"
 "http://www.w3.org/TR/2001/REC-SVG-20010904/DTD/svg10.dtd">
<svg version="1.0" xmlns="http://www.w3.org/2000/svg"
 width="563.000000pt" height="563.000000pt" viewBox="0 0 563.000000 563.000000"
 preserveAspectRatio="xMidYMid meet">
<metadata>
Created by potrace 1.11, written by Peter Selinger 2001-2013
</metadata>
<g transform="translate(0.000000,563.000000) scale(0.100000,-0.100000)"
fill="#000000" stroke="none">
<path d="M2720 5439 c-19 -5 -40 -11 -45 -12 -45 -11 -139 -70 -185 -117 -52
-53 -105 -142 -114 -193 -3 -12 -5 -22 -6 -22 -5 0 -11 -49 -11 -105 -1 -36 6
-89 15 -118 18 -63 56 -142 68 -142 4 0 8 -5 8 -10 0 -10 56 -67 92 -95 61
-47 159 -84 238 -89 195 -12 380 102 454 278 23 55 28 81 32 168 6 144 -56
274 -177 373 -29 24 -108 65 -135 70 -10 2 -19 4 -19 5 0 13 -172 20 -215 9z"/>
<path d="M1958 4355 c-2 -2 -23 -6 -48 -10 -25 -3 -76 -15 -115 -26 -68 -20
-97 -31 -181 -70 -22 -10 -46 -19 -52 -19 -7 0 -12 -4 -12 -9 0 -5 -9 -13 -20
-16 -32 -10 -170 -117 -231 -179 l-57 -57 -61 11 c-115 21 -136 23 -231 24
-158 2 -260 -18 -395 -77 -162 -70 -314 -200 -409 -350 -65 -103 -116 -237
-134 -352 -7 -47 -7 -237 0 -280 16 -93 22 -118 50 -200 17 -49 36 -93 42 -97
6 -4 8 -8 3 -8 -4 0 3 -19 15 -42 12 -24 22 -45 23 -48 0 -3 7 -16 15 -30 8
-14 14 -28 15 -31 1 -23 180 -307 291 -464 74 -104 143 -201 152 -214 46 -65
17 -60 396 -59 246 1 343 4 339 12 -17 29 -112 169 -162 238 -31 42 -81 112
-111 155 -30 43 -60 84 -67 91 -7 7 -13 17 -13 22 0 5 -6 15 -13 22 -12 12
-103 139 -137 192 -8 13 -33 50 -56 82 -22 33 -51 79 -65 104 -13 25 -27 47
-31 50 -11 9 -68 161 -82 220 -18 76 -14 202 7 266 12 34 36 70 72 108 30 31
55 53 55 49 0 -4 4 -3 8 2 17 24 98 50 157 50 l60 0 -4 -60 c-15 -193 -2 -330
41 -460 22 -67 79 -188 91 -193 4 -2 7 -8 7 -13 0 -10 104 -172 129 -200 6 -8
124 -174 262 -369 138 -195 256 -358 262 -362 15 -9 707 -6 707 4 0 4 -4 8 -8
8 -5 0 -14 10 -19 23 -6 12 -18 31 -27 42 -20 26 -98 136 -156 221 -25 36 -50
71 -55 77 -6 7 -37 50 -69 97 -33 47 -63 87 -68 88 -4 2 -8 8 -8 14 0 6 -13
27 -28 47 -16 20 -55 74 -87 121 -32 47 -61 87 -64 90 -3 3 -10 12 -16 21 -11
18 -35 52 -125 179 -108 153 -118 168 -140 217 -45 102 -59 265 -31 359 17 55
54 136 68 152 7 7 13 18 13 23 0 5 28 37 63 71 66 67 153 119 239 145 64 19
186 25 254 12 27 -5 58 -11 69 -13 99 -19 198 -90 233 -166 30 -68 30 -64 31
-1007 l1 -831 273 1 272 2 1 835 c1 460 4 863 8 897 8 81 27 123 76 173 46 47
124 85 214 104 62 13 208 14 259 2 48 -11 141 -48 163 -65 12 -9 32 -23 44
-31 65 -43 144 -144 184 -235 22 -52 44 -178 39 -230 -6 -70 -20 -141 -34
-167 -5 -10 -6 -18 -2 -18 4 0 4 -4 -2 -8 -5 -4 -19 -24 -29 -45 -11 -21 -52
-84 -92 -140 -41 -56 -78 -109 -84 -117 -20 -29 -189 -269 -338 -478 -84 -118
-152 -217 -152 -222 0 -5 -4 -10 -8 -12 -12 -5 -152 -205 -152 -217 0 -6 -4
-11 -10 -11 -5 0 -10 -4 -10 -9 0 -10 705 -11 712 -1 2 3 8 12 13 22 10 17
173 245 188 263 8 10 94 132 119 168 23 34 87 122 98 134 5 7 10 16 10 22 0 5
4 11 8 13 5 2 45 57 90 123 45 66 86 125 92 132 5 6 20 32 32 57 12 25 26 46
30 46 4 0 8 5 8 10 0 6 9 29 19 53 67 145 98 362 76 527 -13 98 -16 94 59 88
217 -18 348 -212 303 -448 -4 -19 -7 -37 -7 -40 2 -30 -107 -270 -122 -270 -4
0 -8 -5 -8 -12 0 -11 -74 -131 -95 -154 -5 -6 -41 -57 -80 -114 -38 -56 -77
-110 -85 -119 -8 -9 -28 -37 -45 -61 -16 -25 -33 -46 -37 -48 -5 -2 -8 -7 -8
-12 0 -6 -167 -249 -218 -315 -13 -18 -42 -64 -42 -68 0 -2 157 -3 350 -3
l349 1 142 200 c149 210 235 336 250 370 5 11 23 43 39 70 76 127 171 347 195
450 40 174 38 337 -7 490 -23 80 -87 225 -99 225 -4 0 -11 10 -14 23 -8 25
-90 125 -144 175 -103 95 -280 195 -383 216 -13 3 -52 11 -88 19 -88 19 -278
15 -386 -8 -87 -19 -85 -19 -159 53 -119 114 -240 192 -390 249 -72 27 -103
36 -210 59 -51 11 -317 12 -375 2 -47 -9 -195 -39 -210 -43 -3 -1 -18 -5 -35
-10 -16 -5 -46 -15 -65 -24 -19 -8 -37 -15 -40 -16 -14 -2 -162 -80 -166 -87
-3 -4 -42 12 -88 37 -118 64 -255 111 -381 131 -16 3 -41 8 -55 11 -27 6 -336
13 -342 8z"/>
<path d="M2619 1396 c-2 -2 -33 -7 -69 -10 -90 -9 -124 -14 -205 -26 -104 -17
-105 -17 -175 -35 -36 -9 -76 -18 -90 -21 -30 -6 -171 -48 -255 -76 -206 -68
-535 -221 -725 -336 -19 -12 -61 -36 -92 -54 -32 -18 -58 -36 -58 -40 0 -5 -5
-8 -10 -8 -16 0 -186 -118 -222 -153 -70 -71 -91 -192 -49 -280 74 -153 259
-196 396 -91 18 13 36 24 41 24 5 0 21 11 36 25 15 14 30 25 33 25 3 0 36 20
73 45 37 25 72 45 79 45 7 0 13 5 13 10 0 6 6 10 14 10 8 0 16 3 18 8 8 18
338 180 473 232 61 23 119 46 130 51 22 8 134 42 180 54 17 5 35 9 40 11 32
10 93 25 115 29 14 2 68 11 120 21 138 24 145 24 375 28 137 2 243 -1 305 -10
115 -16 155 -22 155 -24 0 -1 15 -3 33 -6 54 -7 188 -42 307 -80 102 -34 324
-122 335 -134 3 -3 42 -23 88 -45 45 -21 82 -43 82 -47 0 -4 6 -8 14 -8 13 0
224 -125 236 -139 3 -3 17 -12 33 -20 15 -8 27 -18 27 -23 0 -4 6 -8 13 -8 7
0 22 -8 33 -18 11 -9 27 -21 36 -27 8 -5 35 -23 58 -39 153 -101 343 -36 393
136 24 79 1 184 -52 237 -54 54 -294 217 -466 316 -96 55 -368 195 -379 195
-4 0 -25 8 -49 19 -23 10 -69 29 -102 41 -33 12 -69 26 -80 30 -36 15 -276 85
-325 94 -8 2 -26 6 -40 9 -41 10 -191 36 -240 42 -25 3 -63 8 -85 11 -44 6
-511 15 -516 10z"/>
</g>
</svg>
